<?xml version="1.0" standalone="no"?>
<!DOCTYPE svg PUBLIC "-//W3C//DTD SVG 1.1//EN" "http://www.w3.org/Graphics/SVG/1.1/DTD/svg11.dtd" >
<svg>
<metadata>
Created by FontForge 20120731 at Wed Jul 24 22:51:31 2019
 By www
The digitally encoded machine readable software for producing the Typefaces licensed to you is copyrighted (c) 2000, Linotype Library GmbH or ist affiliated Linotype-Hell companies. All rights reserved. This software is now the property of Heidelberger Druckmaschinen AG and its licensors, and may not be reproduced, used, displayed, modified, disclosed or transferred without the express written approval of Heidelberger Druckmaschinen AG.
</metadata>
<defs>
<font id="LinotypeKaliber-Bold" horiz-adv-x="504" >
  <font-face 
    font-family="LTKaliber"
    font-weight="700"
    font-stretch="normal"
    units-per-em="1000"
    panose-1="2 0 7 0 0 0 0 0 0 0"
    ascent="800"
    descent="-200"
    x-height="505"
    cap-height="682"
    bbox="-55 -218 801 890"
    underline-thickness="35"
    underline-position="-33"
    unicode-range="U+0020-2122"
  />
<missing-glyph horiz-adv-x="500" 
d="M63 0v765h375v-765h-375zM125 63h250v640h-250v-640z" />
    <glyph glyph-name=".notdef" unicode="&#x201b;" horiz-adv-x="500" 
d="M63 0v765h375v-765h-375zM125 63h250v640h-250v-640z" />
    <glyph glyph-name=".notdef" unicode="&#x201f;" horiz-adv-x="500" 
d="M63 0v765h375v-765h-375zM125 63h250v640h-250v-640z" />
    <glyph glyph-name="glyph1" horiz-adv-x="0" 
 />
    <glyph glyph-name="space" unicode=" " horiz-adv-x="300" 
 />
    <glyph glyph-name="exclam" unicode="!" horiz-adv-x="264" 
d="M70 186v496h119v-496h-119zM70 -3v120h119v-120h-119z" />
    <glyph glyph-name="quotedbl" unicode="&#x22;" horiz-adv-x="413" 
d="M264 437h-59l25 245h123zM118 437h-59l25 245h123z" />
    <glyph glyph-name="numbersign" unicode="#" horiz-adv-x="456" 
d="M326 136v-85h-79v85h-46v-85h-79v85h-63v79h63v74h-63v79h63v84h79v-84h46v84h79v-84h63v-79h-63v-74h63v-79h-63zM247 289h-46v-74h46v74z" />
    <glyph glyph-name="dollar" unicode="$" horiz-adv-x="478" 
d="M301 91h-10v-54h-108v54h-15q-43 0 -76 34t-33 80v52h107v-39q0 -15 19 -15h96q16 0 16 19v81q0 15 -17 15h-112q-43 0 -76 31t-33 77v91q0 45 31.5 78t77.5 33h15v54h108v-54h10q45 0 78 -32t33 -79v-51h-115v39q0 15 -17 15h-98q-16 0 -16 -18v-61q0 -16 19 -16h116
q45 0 78 -31.5t33 -78.5v-116q0 -44 -32 -76t-79 -32z" />
    <glyph glyph-name="percent" unicode="%" horiz-adv-x="611" 
d="M225 277h-111q-24 0 -40.5 16t-16.5 41v111q0 23 16.5 41.5t40.5 18.5h111q23 0 39 -17.5t16 -42.5v-111q0 -24 -16 -40.5t-39 -16.5zM210 347v86h-82v-86h82zM199 -19l-63 33l259 506l63 -33zM486 -3h-111q-24 0 -40 17t-16 42v112q0 23 16.5 40t39.5 17h111
q23 0 39 -16.5t16 -40.5v-112q0 -25 -16 -42t-39 -17zM389 156v-88l83 1v87h-83z" />
    <glyph glyph-name="ampersand" unicode="&#x26;" horiz-adv-x="429" 
d="M361 126v-21q0 -44 -31 -76t-77 -32h-87q-46 0 -76.5 32t-30.5 76v131q0 32 17 59q-17 25 -17 57v94q0 43 30.5 76t76.5 33h63q43 0 76 -31.5t33 -77.5v-52h-102v38q0 15 -17 15h-40q-14 0 -14 -15v-73l90 -52v35h106v-97l26 -15v-120zM255 185l-85 48q-5 3 -5 1v-112
q0 -14 14 -14h61q15 0 15 14v63z" />
    <glyph glyph-name="quotesingle" unicode="'" horiz-adv-x="227" 
d="M118 437h-59l25 245h123z" />
    <glyph glyph-name="parenleft" unicode="(" horiz-adv-x="319" 
d="M176 -179q-51 0 -84 33.5t-33 84.5v706q0 49 33.5 84t83.5 35h79v-107h-71q-18 0 -18 -21v-685q0 -23 20 -23h69v-107h-79z" />
    <glyph glyph-name="parenright" unicode=")" horiz-adv-x="319" 
d="M136 -179h-77v107h68q21 0 21 23v685q0 21 -19 21h-70v107h77q51 0 85 -35t34 -84v-706q0 -51 -33.5 -84.5t-85.5 -33.5z" />
    <glyph glyph-name="asterisk" unicode="*" 
d="M358 306l-65 66v-92h-91v92l-66 -66l-63 64l110 111l-110 110l63 64l66 -66v93h91v-93l65 66l64 -64l-111 -110l111 -111z" />
    <glyph glyph-name="plus" unicode="+" 
d="M301 198v-135h-107v135h-135v107h135v136h107v-136h136v-107h-136z" />
    <glyph glyph-name="comma" unicode="," horiz-adv-x="264" 
d="M105 -129h-59l25 246h123z" />
    <glyph glyph-name="hyphenminus" unicode="-" 
d="M101 198v107h296v-107h-296z" />
    <glyph glyph-name="period" unicode="." horiz-adv-x="264" 
d="M70 -3v120h119v-120h-119z" />
    <glyph glyph-name="slash" unicode="/" horiz-adv-x="366" 
d="M123 -132h-108l223 896h109z" />
    <glyph glyph-name="zero" unicode="0" 
d="M318 -3h-142q-51 0 -84 34t-33 85v447q0 48 33.5 83.5t83.5 35.5h142q48 0 83.5 -34.5t35.5 -84.5v-447q0 -50 -35.5 -84.5t-83.5 -34.5zM329 556q0 18 -21 18h-124q-18 0 -18 -20v-426q0 -23 20 -23h122q21 0 21 18v433z" />
    <glyph glyph-name="one" unicode="1" horiz-adv-x="300" 
d="M106 -3v577h-47v108h154v-685h-107z" />
    <glyph glyph-name="two" unicode="2" 
d="M59 -3v295q0 51 34.5 85t82.5 34h132q21 0 21 18v125q0 20 -18 20h-125q-20 0 -20 -18v-40h-107v47q0 50 34.5 84.5t82.5 34.5h142q50 0 84.5 -35.5t34.5 -83.5v-141q0 -50 -35.5 -84t-83.5 -34h-132q-20 0 -20 -19v-180h163v26h108v-134h-378z" />
    <glyph glyph-name="three" unicode="3" 
d="M318 -3h-142q-48 0 -82.5 34.5t-34.5 84.5v35q0 18 16.5 28.5t36.5 10.5t37 -10.5t17 -28.5v-28q0 -18 20 -18h125q18 0 18 20v160q0 19 -21 19h-108v107h108q21 0 21 18v125q0 20 -18 20h-125q-20 0 -20 -18v-40h-107v47q0 50 34.5 84.5t82.5 34.5h142q50 0 84.5 -35.5
t34.5 -83.5v-141q0 -35 -21 -65q21 -30 21 -65v-176q0 -49 -34.5 -84t-84.5 -35z" />
    <glyph glyph-name="four" unicode="4" horiz-adv-x="479" 
d="M306 -3v238h-247v336l90 90q10 9 24 9q21 0 41 -20t20 -41q0 -14 -9 -24l-59 -59v-184h140v340h107v-685h-107z" />
    <glyph glyph-name="five" unicode="5" 
d="M318 -3h-142q-48 0 -82.5 34.5t-34.5 84.5v35q0 18 16.5 28.5t36.5 10.5t37 -10.5t17 -28.5v-28q0 -18 20 -18h125q18 0 18 20v160q0 19 -21 19h-249v378h354v-140h-107v32h-140v-163h152q48 0 83.5 -34t35.5 -85v-176q0 -49 -34.5 -84t-84.5 -35z" />
    <glyph glyph-name="six" unicode="6" 
d="M318 -3h-142q-48 0 -82.5 34.5t-34.5 84.5v447q0 48 33.5 83.5t83.5 35.5h142q48 0 83.5 -34.5t35.5 -84.5v-47h-108v40q0 18 -21 18h-124q-18 0 -18 -20v-143h152q48 0 83.5 -34t35.5 -85v-176q0 -49 -34.5 -84t-84.5 -35zM329 285q0 19 -21 19h-142v-176q0 -23 20 -23
h125q18 0 18 20v160z" />
    <glyph glyph-name="seven" unicode="7" horiz-adv-x="447" 
d="M231 269v-273h-107v318l160 160v100h-241v108h348v-253z" />
    <glyph glyph-name="eight" unicode="8" 
d="M318 -3h-142q-48 0 -82.5 34.5t-34.5 84.5v176q0 36 19 65q-19 29 -19 65v141q0 50 34.5 84.5t82.5 34.5h142q50 0 84.5 -35.5t34.5 -83.5v-141q0 -35 -21 -65q21 -30 21 -65v-176q0 -49 -34.5 -84t-84.5 -35zM329 554q0 20 -18 20h-125q-20 0 -20 -18v-127q0 -18 20 -18
h122q21 0 21 18v125zM329 285q0 19 -21 19h-122q-20 0 -20 -19v-162q0 -18 20 -18h125q18 0 18 20v160z" />
    <glyph glyph-name="nine" unicode="9" 
d="M318 -3h-142q-48 0 -82.5 34.5t-34.5 84.5v35q0 18 16.5 28.5t36.5 10.5t37 -10.5t17 -28.5v-28q0 -18 20 -18h125q18 0 18 20v179h-153q-48 0 -82.5 34t-34.5 84v141q0 48 33.5 83.5t83.5 35.5h142q48 0 83.5 -34.5t35.5 -84.5v-447q0 -49 -34.5 -84t-84.5 -35zM329 551
q0 23 -21 23h-124q-18 0 -18 -20v-125q0 -18 20 -18h143v140z" />
    <glyph glyph-name="colon" unicode=":" horiz-adv-x="264" 
d="M70 386v119h119v-119h-119zM70 -3v120h119v-120h-119z" />
    <glyph glyph-name="semicolon" unicode=";" horiz-adv-x="264" 
d="M70 386v119h119v-119h-119zM105 -129h-59l25 246h123z" />
    <glyph glyph-name="less" unicode="&#x3c;" horiz-adv-x="381" 
d="M238 39l-176 177v66l176 177l76 -77l-132 -133l132 -133z" />
    <glyph glyph-name="equal" unicode="=" 
d="M59 274v108h378v-108h-378zM59 122v107h378v-107h-378z" />
    <glyph glyph-name="greater" unicode="&#x3e;" horiz-adv-x="381" 
d="M136 39l-76 77l133 133l-133 133l76 77l177 -177v-66z" />
    <glyph glyph-name="question" unicode="?" horiz-adv-x="542" 
d="M354 316h-40q-20 0 -20 -19v-134h-119v153q0 50 34.5 84.5t83.5 34.5h40q21 0 21 17v90q0 21 -19 21h-137q-20 0 -20 -19v-52h-119v71q0 50 34.5 84.5t82.5 34.5h178q50 0 84.5 -35.5t34.5 -83.5v-129q0 -51 -35 -84.5t-84 -33.5zM175 -3v120h119v-120h-119z" />
    <glyph glyph-name="at" unicode="@" horiz-adv-x="765" 
d="M530 106h-168q-56 0 -94 39t-38 93v28q0 56 39.5 94t92.5 38h136v-184h21q35 0 35 32v158q0 35 -33 35h-290q-14 0 -24.5 -11t-10.5 -26v-300q0 -14 9 -24.5t24 -10.5h366v-108h-376q-56 0 -93 39t-37 93v324q0 57 38.5 94.5t91.5 37.5h311q56 0 93.5 -39t37.5 -93v-177
q0 -56 -38.5 -94t-92.5 -38zM390 289h-16q-14 0 -24.5 -11t-10.5 -26v-38h51v75z" />
    <glyph glyph-name="A" unicode="A" 
d="M329 -3v248h-163v-248h-107v566q0 50 34.5 84.5t82.5 34.5h142q48 0 83.5 -34.5t35.5 -84.5v-566h-108zM329 556q0 18 -21 18h-122q-20 0 -20 -18v-204h163v204z" />
    <glyph glyph-name="B" unicode="B" 
d="M318 -3h-259v685h259q50 0 84.5 -35.5t34.5 -83.5v-141q0 -36 -20 -66q20 -31 20 -64v-176q0 -51 -34 -85t-85 -34zM329 554q0 20 -18 20h-145v-163h142q21 0 21 23v120zM329 283q0 21 -18 21h-145v-199h142q21 0 21 23v155z" />
    <glyph glyph-name="C" unicode="C" 
d="M318 -3h-142q-51 0 -84 34t-33 85v447q0 48 33.5 83.5t83.5 35.5h142q48 0 83.5 -34.5t35.5 -84.5v-47h-108v40q0 18 -21 18h-124q-18 0 -18 -20v-426q0 -23 20 -23h122q21 0 21 18v28q0 18 16.5 28.5t36.5 10.5t37.5 -10.5t17.5 -28.5v-35q0 -50 -35.5 -84.5
t-83.5 -34.5z" />
    <glyph glyph-name="D" unicode="D" 
d="M318 -3h-259v685h259q48 0 83.5 -34.5t35.5 -84.5v-447q0 -50 -35.5 -84.5t-83.5 -34.5zM329 556q0 18 -21 18h-142v-469h142q21 0 21 18v433z" />
    <glyph glyph-name="E" unicode="E" horiz-adv-x="500" 
d="M424 -3h-365v685h378v-108h-271v-163h213v-107h-213v-199h258q18 0 28.5 -17t10.5 -37t-10.5 -37t-28.5 -17z" />
    <glyph glyph-name="F" unicode="F" horiz-adv-x="472" 
d="M166 574v-163h200q18 0 29 -17t11 -37t-10.5 -36.5t-28.5 -16.5h-201v-307h-107v685h378v-108h-271z" />
    <glyph glyph-name="G" unicode="G" 
d="M318 -3h-142q-51 0 -84 34t-33 85v447q0 48 33.5 83.5t83.5 35.5h142q48 0 83.5 -34.5t35.5 -84.5v-47h-108v40q0 18 -21 18h-124q-18 0 -18 -20v-426q0 -23 20 -23h122q21 0 21 18v122h-59v107h167v-236q0 -50 -35.5 -84.5t-83.5 -34.5z" />
    <glyph glyph-name="H" unicode="H" 
d="M329 -3v307h-163v-307h-107v685h107v-271h163v271h108v-685h-108z" />
    <glyph glyph-name="I" unicode="I" horiz-adv-x="276" 
d="M82 -3v685h107v-685h-107z" />
    <glyph glyph-name="J" unicode="J" horiz-adv-x="475" 
d="M290 -3h-142q-48 0 -83 34.5t-35 84.5v35q0 18 17 28.5t37 10.5q19 0 36 -10.5t17 -28.5v-28q0 -18 21 -18h125q17 0 17 20v557h108v-566q0 -49 -34 -84t-84 -35z" />
    <glyph glyph-name="K" unicode="K" horiz-adv-x="499" 
d="M329 -3v215q0 16 -107 103l-12 10l-44 -62v-266h-107v684h107v-244l168 244h100l-2 -42l-155 -225l11 -8q149 -120 149 -164v-245h-108z" />
    <glyph glyph-name="L" unicode="L" horiz-adv-x="456" 
d="M376 -3h-317v685h107v-577h210q18 0 28.5 -17t10.5 -37t-10.5 -37t-28.5 -17z" />
    <glyph glyph-name="M" unicode="M" horiz-adv-x="659" 
d="M481 -3v559q0 19 -21 19h-63q-20 0 -20 -19v-559h-107v559q0 19 -21 19h-63q-20 0 -20 -19v-559h-107v566q0 50 34.5 84.5t82.5 34.5h82q35 0 65 -19q31 19 65 19h81q49 0 84 -34.5t35 -84.5v-566h-107z" />
    <glyph glyph-name="N" unicode="N" 
d="M311 -3l-145 402v-402h-107v685h118l152 -419v419h108v-685h-126z" />
    <glyph glyph-name="O" unicode="O" 
d="M318 -3h-142q-51 0 -84 34t-33 85v447q0 48 33.5 83.5t83.5 35.5h142q48 0 83.5 -34.5t35.5 -84.5v-447q0 -50 -35.5 -84.5t-83.5 -34.5zM329 556q0 18 -21 18h-124q-18 0 -18 -20v-426q0 -23 20 -23h122q21 0 21 18v433z" />
    <glyph glyph-name="P" unicode="P" horiz-adv-x="499" 
d="M318 304h-152v-307h-107v685h259q50 0 84.5 -35.5t34.5 -83.5v-141q0 -51 -34 -84.5t-85 -33.5zM329 554q0 20 -18 20h-145v-163h142q21 0 21 23v120z" />
    <glyph glyph-name="Q" unicode="Q" 
d="M318 -3h-16v-59h-107v59h-19q-51 0 -84 34t-33 85v447q0 48 33.5 83.5t83.5 35.5h142q48 0 83.5 -34.5t35.5 -84.5v-447q0 -50 -35.5 -84.5t-83.5 -34.5zM329 556q0 18 -21 18h-124q-18 0 -18 -20v-426q0 -23 20 -23h122q21 0 21 18v433z" />
    <glyph glyph-name="R" unicode="R" 
d="M329 -3v286q0 21 -18 21h-145v-307h-107v685h259q50 0 84.5 -35.5t34.5 -83.5v-141q0 -36 -20 -66q20 -31 20 -64v-295h-108zM329 554q0 20 -18 20h-145v-163h142q21 0 21 23v120z" />
    <glyph glyph-name="S" unicode="S" 
d="M318 -3h-142q-48 0 -82.5 34.5t-34.5 84.5v35q0 18 16.5 28.5t36.5 10.5t37 -10.5t17 -28.5v-28q0 -18 20 -18h125q18 0 18 20v160q0 19 -21 19h-132q-48 0 -82.5 34t-34.5 84v141q0 48 33.5 83.5t83.5 35.5h142q48 0 83.5 -34.5t35.5 -84.5v-47h-108v40q0 18 -21 18
h-124q-18 0 -18 -20v-125q0 -18 20 -18h132q48 0 83.5 -34t35.5 -85v-176q0 -49 -34.5 -84t-84.5 -35z" />
    <glyph glyph-name="T" unicode="T" horiz-adv-x="456" 
d="M279 574v-577h-107v577h-137v108h378v-108h-134z" />
    <glyph glyph-name="U" unicode="U" 
d="M318 -3h-142q-48 0 -82.5 34.5t-34.5 84.5v566h107v-559q0 -18 20 -18h122q21 0 21 18v559h108v-566q0 -50 -35.5 -84.5t-83.5 -34.5z" />
    <glyph glyph-name="V" unicode="V" 
d="M300 -3h-106q-135 165 -135 235v450h107v-426q0 -51 81 -145q82 89 82 145v426h108v-450q0 -76 -137 -235z" />
    <glyph glyph-name="W" unicode="W" horiz-adv-x="659" 
d="M469 -3h-81q-34 0 -65 19q-30 -19 -65 -19h-82q-48 0 -82.5 34.5t-34.5 84.5v566h107v-559q0 -18 20 -18h63q21 0 21 18v559h107v-559q0 -18 20 -18h63q21 0 21 18v559h107v-566q0 -50 -35 -84.5t-84 -34.5z" />
    <glyph glyph-name="X" unicode="X" 
d="M329 -3v216l-82 81l-81 -81v-216h-107v259l95 96l-95 97v233h107v-191l81 -81l82 81v191h108v-233l-97 -97l97 -96v-259h-108z" />
    <glyph glyph-name="Y" unicode="Y" horiz-adv-x="482" 
d="M307 304h-16v-307h-107v307h-19q-48 0 -82.5 34t-34.5 84v260h107v-253q0 -18 20 -18h122q21 0 21 18v253h108v-260q0 -50 -35.5 -84t-83.5 -34z" />
    <glyph glyph-name="Z" unicode="Z" horiz-adv-x="468" 
d="M389 -3h-341v157l235 407v13h-224v108h331v-149l-235 -408v-20h234q18 0 28.5 -17t10.5 -37t-10.5 -37t-28.5 -17z" />
    <glyph glyph-name="bracketleft" unicode="[" horiz-adv-x="319" 
d="M59 -179v943h196v-107h-89v-729h89v-107h-196z" />
    <glyph glyph-name="backslash" unicode="\" horiz-adv-x="366" 
d="M236 -132l-224 896h109l223 -896h-108z" />
    <glyph glyph-name="bracketright" unicode="]" horiz-adv-x="319" 
d="M59 -179v107h89v729h-89v107h196v-943h-196z" />
    <glyph glyph-name="asciicircum" unicode="^" horiz-adv-x="434" 
d="M315 498l-103 102l-103 -102l-56 57l127 127h65l127 -127z" />
    <glyph glyph-name="underscore" unicode="_" horiz-adv-x="300" 
d="M-17 -74v61h328v-61h-328z" />
    <glyph glyph-name="grave" unicode="`" 
d="M355 690l-263 81l76 100l217 -148z" />
    <glyph glyph-name="a" unicode="a" horiz-adv-x="495" 
d="M309 -3h-142q-50 0 -83.5 35t-33.5 84v94q0 50 34.5 84.5t82.5 34.5h142q7 0 11 -1v49q0 21 -18 21h-157q-18 0 -28.5 16.5t-10.5 36.5t10.5 37t28.5 17h164q50 0 84.5 -35t34.5 -84v-270q0 -50 -35.5 -84.5t-83.5 -34.5zM320 201q0 21 -18 21h-125q-20 0 -20 -19v-78
q0 -20 18 -20h124q21 0 21 23v73z" />
    <glyph glyph-name="b" unicode="b" 
d="M318 -3h-142q-48 0 -82.5 34.5t-34.5 84.5v566h107v-554q0 -23 20 -23h125q18 0 18 20v254q0 19 -21 19h-88q-18 0 -28 16.5t-10 36.5q0 54 37 54h99q48 0 83.5 -34t35.5 -85v-270q0 -49 -34.5 -84t-84.5 -35z" />
    <glyph glyph-name="c" unicode="c" horiz-adv-x="481" 
d="M371 312q-20 0 -37 10.5t-17 28.5v28q0 19 -21 19h-112q-18 0 -18 -21v-249q0 -23 20 -23h232v-48q0 -46 -39 -56q-12 -4 -73 -4h-130q-51 0 -84 34t-33 85v270q0 49 33.5 84t83.5 35h130q48 0 83.5 -34t35.5 -85v-35q0 -18 -17 -28.5t-37 -10.5z" />
    <glyph glyph-name="d" unicode="d" 
d="M319 -3h-142q-50 0 -84 35t-34 84v270q0 51 35 85t83 34h99q37 0 37 -54q0 -20 -10 -36.5t-28 -16.5h-88q-20 0 -20 -19v-254q0 -20 17 -20h125q21 0 21 23v554h107v-566q0 -50 -35 -84.5t-83 -34.5z" />
    <glyph glyph-name="e" unicode="e" horiz-adv-x="499" 
d="M221 198q-18 0 -28 16.5t-10 36.5t10 37t29 17h107v72q0 21 -18 21h-125q-20 0 -20 -23v-250q0 -20 18 -20h247v-44q0 -46 -39 -58q-17 -6 -74 -6h-142q-50 0 -83.5 35t-33.5 84v270q0 51 34.5 85t82.5 34h142q50 0 84.5 -35t34.5 -84v-188h-216z" />
    <glyph glyph-name="f" unicode="f" horiz-adv-x="376" 
d="M315 323h-125v-326h-107v326h-40v104h40v136q0 57 80 101q58 24 116 49q16 -41 16 -73q0 -25 -11 -39l-86 -41q-8 -4 -8 -6v-127h125q18 0 29 -20q10 -16 10 -34q0 -20 -10 -35t-29 -15z" />
    <glyph glyph-name="g" unicode="g" horiz-adv-x="505" 
d="M437 -58l-149 -150q-10 -10 -24 -10q-21 0 -41.5 20.5t-20.5 41.5q0 14 10 24l117 116v391q0 23 -21 23h-124q-18 0 -18 -21v-254q0 -18 20 -18h88q18 0 28.5 -17t10.5 -37t-10.5 -37t-28.5 -17h-98q-48 0 -82.5 34.5t-34.5 84.5v270q0 49 33.5 84t83.5 35h142
q48 0 83.5 -34t35.5 -85v-444z" />
    <glyph glyph-name="h" unicode="h" 
d="M382 -11q-20 0 -36.5 10.5t-16.5 28.5v351q0 5 -7.5 12t-13.5 7q-8 0 -142 -55v-346h-107v685h107v-223q128 49 162 49q46 0 79 -40q30 -36 30 -82v-358q0 -18 -17.5 -28.5t-37.5 -10.5z" />
    <glyph glyph-name="i" unicode="i" horiz-adv-x="257" 
d="M46 595q0 29 20 49t49 20t49 -20.5t20 -48.5q0 -29 -20.5 -49t-49.5 -20q-28 0 -48 20t-20 49zM160 -8q-24 0 -54 30q-22 24 -43 49l-1 434h108v-390l39 -39q9 -9 9 -23q0 -23 -19 -42t-39 -19z" />
    <glyph glyph-name="j" unicode="j" horiz-adv-x="275" 
d="M86 598q0 29 20 49t49 20t49 -20.5t20 -48.5q0 -29 -20.5 -49t-49.5 -20q-28 0 -48 20t-20 49zM179 -117l-42 -48q-28 -28 -51 -28q-20 0 -38.5 18.5t-18.5 38.5q0 22 26 49q23 21 46 41v551h108v-566q0 -27 -30 -56z" />
    <glyph glyph-name="k" unicode="k" horiz-adv-x="475" 
d="M166 203v-206h-107v685h107v-339l137 162h104v-51l-159 -182l180 -179v-96h-57z" />
    <glyph glyph-name="l" unicode="l" horiz-adv-x="261" 
d="M156 -8q-24 0 -54 30q-22 24 -43 49v610h107v-566l39 -39q9 -9 9 -23q0 -23 -19 -42t-39 -19z" />
    <glyph glyph-name="m" unicode="m" horiz-adv-x="660" 
d="M536 -10q-20 0 -37 10.5t-17 28.5v350q0 19 -21 19h-82v-401h-107v401h-106v-401h-107v508h412q48 0 83.5 -34t35.5 -85v-357q0 -18 -17 -28.5t-37 -10.5z" />
    <glyph glyph-name="n" unicode="n" 
d="M383 -10q-18 0 -36 11t-18 29v349q0 19 -21 19h-142v-401h-107v508h259q48 0 83.5 -34t35.5 -85v-356q0 -18 -20 -30q-16 -10 -34 -10z" />
    <glyph glyph-name="o" unicode="o" 
d="M318 -3h-142q-51 0 -84 34t-33 85v270q0 49 33.5 84t83.5 35h142q48 0 83.5 -34t35.5 -85v-270q0 -50 -35.5 -84.5t-83.5 -34.5zM329 379q0 19 -21 19h-124q-18 0 -18 -21v-249q0 -23 20 -23h122q21 0 21 18v256z" />
    <glyph glyph-name="p" unicode="p" 
d="M318 -5h-99q-37 0 -37 54q0 20 10 37t28 17h88q21 0 21 18v254q0 21 -18 21h-125q-20 0 -20 -24v-554h-107v566q0 50 34.5 84.5t82.5 34.5h142q50 0 84.5 -35t34.5 -84v-270q0 -51 -35.5 -85t-83.5 -34z" />
    <glyph glyph-name="q" unicode="q" 
d="M329 -179v177q-4 -1 -11 -1h-142q-48 0 -82.5 34.5t-34.5 84.5v270q0 49 33.5 84t83.5 35h142q48 0 83.5 -34t35.5 -85v-565h-108zM329 375q0 23 -21 23h-124q-18 0 -18 -21v-254q0 -18 20 -18h125q18 0 18 20v250z" />
    <glyph glyph-name="r" unicode="r" horiz-adv-x="436" 
d="M361 312q-18 0 -36 10.5t-18 28.5v28q0 19 -21 19h-102q-18 0 -18 -21v-380h-107v389q0 49 33.5 84t83.5 35h120q48 0 83.5 -34t35.5 -85v-35q0 -19 -17 -29t-37 -10z" />
    <glyph glyph-name="s" unicode="s" horiz-adv-x="486" 
d="M300 -3h-132q-64 0 -78 4q-42 11 -42 58v46h245q18 0 18 20v57q0 19 -21 19h-122q-48 0 -82.5 38t-34.5 89v58q0 49 33.5 84t83.5 35h132q48 0 83.5 -34t35.5 -85v-31h-108v24q0 19 -21 19h-114q-18 0 -18 -21v-42q0 -10 7 -18.5t13 -8.5h122q48 0 83.5 -34.5t35.5 -84.5
v-73q0 -49 -34.5 -84t-84.5 -35z" />
    <glyph glyph-name="t" unicode="t" horiz-adv-x="390" 
d="M330 1q-13 -4 -76 -4h-35q-50 0 -84 35t-34 84v283h-66v106h66v84h107v-84h99v-106h-99v-274q0 -20 18 -20h144v-48q0 -46 -40 -56z" />
    <glyph glyph-name="u" unicode="u" 
d="M176 -3q-48 0 -82.5 34.5t-34.5 84.5v389h107v-382q0 -18 20 -18h143v400h108v-508h-261z" />
    <glyph glyph-name="v" unicode="v" horiz-adv-x="496" 
d="M363 -3h-106q-67 0 -124 55q-74 71 -74 202l1 251h106l1 -250q0 -82 40 -124q28 -29 68 -33l87 407h115z" />
    <glyph glyph-name="w" unicode="w" horiz-adv-x="658" 
d="M469 -3h-81q-34 0 -65 19q-30 -19 -65 -19h-82q-48 0 -82.5 34.5t-34.5 84.5v389h107v-382q0 -18 20 -18h63q21 0 21 18v382h107v-382q0 -18 20 -18h63q21 0 21 18v382h107v-389q0 -50 -35 -84.5t-84 -34.5z" />
    <glyph glyph-name="x" unicode="x" horiz-adv-x="498" 
d="M333 266l111 -175v-94h-108v61l-92 145l-92 -145v-61h-107v94l110 175l-124 239h119l94 -185l93 185h120z" />
    <glyph glyph-name="y" unicode="y" horiz-adv-x="502" 
d="M256 -2q-82 1 -135 64q-63 74 -63 210l-1 233h114l-1 -232q0 -166 109 -173l84 405h115l-132 -621l-89 -70q-11 -8 -24 -8q-19 0 -35 17.5t-16 38.5q0 18 14 30l46 38z" />
    <glyph glyph-name="z" unicode="z" horiz-adv-x="479" 
d="M391 -3h-332v159l235 235v7h-224v107h331v-159l-235 -235v-6h224q18 0 28.5 -17t10.5 -37t-10 -37t-28 -17z" />
    <glyph glyph-name="braceleft" unicode="{" horiz-adv-x="383" 
d="M239 -179q-51 0 -84.5 33.5t-33.5 84.5v270l-62 62v65l62 63v246q0 49 34 84t84 35h79v-107h-72q-18 0 -18 -21v-278l-55 -55l55 -54v-298q0 -23 20 -23h70v-107h-79z" />
    <glyph glyph-name="bar" unicode="|" horiz-adv-x="276" 
d="M82 -179v967h107v-967h-107z" />
    <glyph glyph-name="braceright" unicode="}" horiz-adv-x="383" 
d="M255 209v-270q0 -51 -33.5 -84.5t-85.5 -33.5h-77v107h68q21 0 21 23v298l54 54l-54 55v278q0 21 -19 21h-70v107h77q51 0 85 -35t34 -84v-246l63 -63v-65z" />
    <glyph glyph-name="asciitilde" unicode="~" horiz-adv-x="524" 
d="M372 532h-74q-27 0 -44 16q-6 5 -28 38q-11 17 -26 17h-51q-9 0 -9 -9v-37h-81v41q0 36 25 60t60 24h75q34 0 57 -35t38 -35h52q10 0 10 7v39h81v-42q0 -36 -25 -60t-60 -24z" />
    <glyph glyph-name="DEL" horiz-adv-x="510" 
 />
    <glyph glyph-name="Euro" 
d="M318 -3h-142q-51 0 -84 34t-33 85v119h-35v94h35v28h-35v94h35v112q0 48 33.5 83.5t83.5 35.5h142q48 0 83.5 -34.5t35.5 -84.5v-47h-108v40q0 18 -21 18h-124q-18 0 -18 -20v-103h217v-94h-217v-28h217v-94h-217v-107q0 -23 20 -23h122q21 0 21 18v28q0 18 16.5 28.5
t36.5 10.5t37.5 -10.5t17.5 -28.5v-35q0 -50 -35.5 -84.5t-83.5 -34.5z" />
    <glyph glyph-name="Euro" unicode="&#x20ac;" 
d="M318 -3h-142q-51 0 -84 34t-33 85v119h-35v94h35v28h-35v94h35v112q0 48 33.5 83.5t83.5 35.5h142q48 0 83.5 -34.5t35.5 -84.5v-47h-108v40q0 18 -21 18h-124q-18 0 -18 -20v-103h217v-94h-217v-28h217v-94h-217v-107q0 -23 20 -23h122q21 0 21 18v28q0 18 16.5 28.5
t36.5 10.5t37.5 -10.5t17.5 -28.5v-35q0 -50 -35.5 -84.5t-83.5 -34.5z" />
    <glyph glyph-name="quotesinglbase" unicode="&#x201a;" horiz-adv-x="227" 
d="M105 -129h-59l25 246h123z" />
    <glyph glyph-name="florin" unicode="&#x192;" horiz-adv-x="669" 
d="M626 516h-108q8 46 8 38q0 20 -17 20h-54q-22 0 -32 -49l-10 -78h108l-18 -108h-109l-71 -402q-8 -47 -47 -81.5t-89 -34.5h-41q-43 0 -73 27.5t-30 70.5q0 11 3 22l9 46h107q-2 -8 -5 -16q-4 -15 -4 -24q0 -19 16 -19h25q21 0 25 23l67 388h-63l18 108h64l22 118
q9 48 48 82.5t89 34.5h70q44 0 72.5 -28.5t28.5 -71.5q0 -10 -2 -21z" />
    <glyph glyph-name="quotedblbase" unicode="&#x201e;" horiz-adv-x="376" 
d="M251 -129h-59l25 246h123zM105 -129h-59l25 246h123z" />
    <glyph glyph-name="ellipsis" unicode="&#x2026;" horiz-adv-x="674" 
d="M479 -3v120h119v-120h-119zM279 -3v120h119v-120h-119zM79 -3v120h119v-120h-119z" />
    <glyph glyph-name="dagger" unicode="&#x2020;" horiz-adv-x="456" 
d="M275 445v-341h-107v341h-109v107h109v130h107v-130h114v-107h-114z" />
    <glyph glyph-name="daggerdbl" unicode="&#x2021;" horiz-adv-x="456" 
d="M275 339v-235h-107v235h-109v108h109v33h-109v108h109v94h107v-94h114v-108h-114v-33h114v-108h-114z" />
    <glyph glyph-name="circumflex" unicode="&#x2c6;" 
d="M351 686l-104 102l-102 -102l-57 57l127 127h65l127 -127z" />
    <glyph glyph-name="perthousand" unicode="&#x2030;" horiz-adv-x="854" 
d="M725 -3h-111q-24 0 -40.5 17t-16.5 42v112q0 23 16.5 40t40.5 17h111q23 0 39 -16.5t16 -40.5v-112q0 -25 -16 -42t-39 -17zM710 68v88h-82v-88h82zM225 277h-111q-24 0 -40.5 16t-16.5 41v111q0 23 16.5 41.5t40.5 18.5h111q23 0 39 -17.5t16 -42.5v-111
q0 -24 -16 -40.5t-39 -16.5zM210 347v86h-82v-86h82zM199 -19l-63 33l259 506l63 -33zM486 -3h-111q-24 0 -40 17t-16 42v112q0 23 16.5 40t39.5 17h111q23 0 39 -16.5t16 -40.5v-112q0 -25 -16 -42t-39 -17zM389 156v-88l83 1v87h-83z" />
    <glyph glyph-name="Scaron" unicode="&#x160;" 
d="M318 -3q49 0 84 35t35 84v176q0 50 -36 85q-34 34 -83 34h-132q-20 0 -20 18v125q0 20 18 20h124q21 0 21 -18v-40h108v47q0 49 -36 84q-35 35 -83 35h-142q-50 0 -84 -36q-33 -35 -33 -83v-141q0 -50 34 -84t83 -34h132q21 0 21 -19v-160q0 -20 -18 -20h-125
q-20 0 -20 18v28q0 18 -17 28.5t-37 10.5t-36.5 -10.5t-16.5 -28.5v-35q0 -51 34 -85t83 -34h142zM89 823l127 -127h66l127 127l-57 57l-102 -102l-104 102z" />
    <glyph glyph-name="guilsinglleft" unicode="&#x2039;" horiz-adv-x="454" 
d="M310 76l-213 138v70l212 137l29 -27l-145 -145l145 -145z" />
    <glyph glyph-name="OE" unicode="&#x152;" horiz-adv-x="780" 
d="M694 -3h-518q-51 0 -84 34t-33 85v447q0 48 33.5 83.5t83.5 35.5h531v-108h-270v-163h212v-107h-212v-199h257q18 0 28.5 -17t10.5 -37t-10.5 -37t-28.5 -17zM329 574h-145q-18 0 -18 -20v-426q0 -23 20 -23h143v469z" />
    <glyph glyph-name="Zcaron" horiz-adv-x="468" 
d="M389 -3q18 0 28.5 17t10.5 37t-10.5 37t-28.5 17h-234v20l235 408v149h-331v-108h224v-13l-235 -407v-157h341zM71 823l127 -127h66l127 127l-57 57l-102 -102l-104 102z" />
    <glyph glyph-name="Zcaron" unicode="&#x17d;" horiz-adv-x="468" 
d="M389 -3q18 0 28.5 17t10.5 37t-10.5 37t-28.5 17h-234v20l235 408v149h-331v-108h224v-13l-235 -407v-157h341zM71 823l127 -127h66l127 127l-57 57l-102 -102l-104 102z" />
    <glyph glyph-name="quoteleft" unicode="&#x2018;" horiz-adv-x="227" 
d="M152 437h-123l89 245h60z" />
    <glyph glyph-name="quoteright" unicode="&#x2019;" horiz-adv-x="227" 
d="M105 437h-59l25 245h123z" />
    <glyph glyph-name="quotedblleft" unicode="&#x201c;" horiz-adv-x="376" 
d="M298 437h-123l89 245h59zM152 437h-123l89 245h60z" />
    <glyph glyph-name="quotedblright" unicode="&#x201d;" horiz-adv-x="376" 
d="M251 437h-59l25 245h123zM105 437h-59l25 245h123z" />
    <glyph glyph-name="bullet" unicode="&#x2022;" horiz-adv-x="389" 
d="M253 140h-124q-20 0 -33.5 14t-13.5 35v125q0 19 13.5 34t33.5 15h124q20 0 33.5 -14t13.5 -35v-125q0 -20 -13.5 -34.5t-33.5 -14.5z" />
    <glyph glyph-name="endash" unicode="&#x2013;" horiz-adv-x="624" 
d="M42 198v107h531v-107h-531z" />
    <glyph glyph-name="emdash" unicode="&#x2014;" horiz-adv-x="744" 
d="M42 198v107h649v-107h-649z" />
    <glyph glyph-name="tilde" unicode="&#x2dc;" 
d="M345 692h-44q-30 0 -50 15q-10 8 -32 38q-13 18 -28 18h-35q-9 0 -9 -9v-37h-81v41q0 36 25 60t60 24h44q29 0 49 -16q9 -7 33 -37q14 -17 28 -17h34q10 0 10 7v39h80v-42q0 -36 -24.5 -60t-59.5 -24z" />
    <glyph glyph-name="trademark" unicode="&#x2122;" horiz-adv-x="552" 
d="M492 492h-41v120q0 16 -17 16h-34v-136h-41v136h-50v-136h-41v177h171q21 0 37 -15.5t16 -37.5v-124zM227 628h-67v-136h-41v136h-68v41h176v-41z" />
    <glyph glyph-name="scaron" unicode="&#x161;" horiz-adv-x="486" 
d="M300 -3q49 0 84 35t35 84v73q0 49 -36 84q-35 35 -83 35h-122q-6 0 -13 8.5t-7 18.5v42q0 21 18 21h114q21 0 21 -19v-24h108v31q0 50 -36 85q-34 34 -83 34h-132q-49 0 -84 -35q-33 -35 -33 -84v-58q0 -52 34 -89q35 -38 83 -38h122q21 0 21 -19v-57q0 -20 -18 -20h-245
v-46q0 -48 42 -58q12 -4 78 -4h132zM79 648l127 -127h65l127 127l-57 57l-102 -103l-104 103z" />
    <glyph glyph-name="guilsinglright" unicode="&#x203a;" horiz-adv-x="454" 
d="M134 76l-26 28l143 145l-144 145l27 27l214 -137v-70z" />
    <glyph glyph-name="oe" unicode="&#x153;" horiz-adv-x="780" 
d="M437 198v-73q0 -20 17 -20h250v-48q0 -37 -34 -50q-24 -10 -82 -10h-141q-36 0 -65 20q-28 -20 -64 -20h-142q-51 0 -84 34t-33 85v270q0 49 33.5 84t83.5 35h142q35 0 64 -20q30 20 65 20h141q50 0 84.5 -35t34.5 -84v-188h-270zM600 377q0 21 -19 21h-125
q-19 0 -19 -23v-70h163v72zM329 379q0 19 -21 19h-124q-18 0 -18 -21v-249q0 -23 20 -23h122q21 0 21 18v256z" />
    <glyph glyph-name="zcaron" horiz-adv-x="479" 
d="M391 -3q18 0 28 17t10 37t-10.5 37t-28.5 17h-224v6l235 235v159h-331v-107h224v-7l-235 -235v-159h332zM76 648l127 -127h65l127 127l-57 57l-102 -103l-104 103z" />
    <glyph glyph-name="zcaron" unicode="&#x17e;" horiz-adv-x="479" 
d="M391 -3q18 0 28 17t10 37t-10.5 37t-28.5 17h-224v6l235 235v159h-331v-107h224v-7l-235 -235v-159h332zM76 648l127 -127h65l127 127l-57 57l-102 -103l-104 103z" />
    <glyph glyph-name="Ydieresis" unicode="&#x178;" 
d="M278 761q0 29 20 49t49 20t49 -20.5t20 -48.5q0 -29 -20.5 -49t-49.5 -20q-28 0 -48 20t-20 49zM78 761q0 29 20 49t49 20t49 -20.5t20 -48.5q0 -29 -20.5 -49t-49.5 -20q-28 0 -48 20t-20 49zM318 304h-16v-307h-107v307h-19q-48 0 -82.5 34t-34.5 84v260h107v-253
q0 -18 20 -18h122q21 0 21 18v253h108v-260q0 -50 -35.5 -84t-83.5 -34z" />
    <glyph glyph-name="nonbreakingspace" unicode="&#xa0;" horiz-adv-x="300" 
 />
    <glyph glyph-name="exclamdown" unicode="&#xa1;" horiz-adv-x="264" 
d="M70 386v119h119v-119h-119zM70 -179v496h119v-496h-119z" />
    <glyph glyph-name="cent" unicode="&#xa2;" horiz-adv-x="478" 
d="M305 120h-14v-54h-108v54h-11q-50 0 -84 38q-29 34 -29 71v259q0 45 31.5 77.5t77.5 32.5h15v54h108v-54h10q45 0 78 -31.5t33 -78.5v-51h-115v39q0 15 -17 15h-91q-16 0 -16 -19v-221q0 -19 15 -19h90q19 0 19 16v39h115v-52q0 -53 -35 -86q-31 -29 -72 -29z" />
    <glyph glyph-name="sterling" unicode="&#xa3;" horiz-adv-x="600" 
d="M59 -3v108h45q18 0 18 20v208h-63v108h63v122q0 48 34 83.5t84 35.5h113q48 0 83.5 -34.5t35.5 -84.5v-47h-108v40q0 18 -20 18h-97q-18 0 -18 -20v-113h109v-108h-109v-217q0 -5 -1 -11h303v-108h-472z" />
    <glyph glyph-name="currency" unicode="&#xa4;" horiz-adv-x="624" 
d="M173 447q10 10 29 10h207q19 0 33 -6l45 45l64 -64l-48 -46q4 -12 4 -27v-216q0 -15 -4 -26l48 -47l-64 -64l-45 45q-16 -5 -33 -5h-207q-14 0 -32 6l-45 -46l-64 64l49 48q-4 13 -4 25v216q0 12 3 29q-3 4 -48 43l64 65l30 -30q5 -5 14 -15zM404 348q0 12 -13 12h-177
q-12 0 -12 -14v-183q0 -15 14 -15h175q13 0 13 11v189z" />
    <glyph glyph-name="yen" unicode="&#xa5;" 
d="M344 357h57v-72h-99v-22h99v-72h-99v-194h-107v194h-101v72h101v22h-101v72h56l-91 92v233h107v-191l81 -81l82 81v191h108v-233z" />
    <glyph glyph-name="brokenbar" unicode="&#xa6;" horiz-adv-x="276" 
d="M189 659h-107v-250h107v250zM189 250h-107v-250h107v250z" />
    <glyph glyph-name="section" unicode="&#xa7;" horiz-adv-x="533" 
d="M444 516h-108l11 43q3 15 -13 15h-72q-20 0 -31 -36q-7 -27 -13 -53q-4 -15 13 -15h161q41 0 67.5 -25.5t26.5 -64.5q0 -16 -5 -32l-65 -235q-13 -47 -55 -81.5t-92 -34.5h-88q-6 0 -13 1l-6 -25h-109l50 191h108l-11 -44q-4 -15 13 -15h72q21 0 34 41l10 48q4 16 -13 16
h-161q-41 0 -67.5 24.5t-26.5 64.5q0 16 5 32l66 235q13 47 54.5 81.5t91.5 34.5h88q7 0 13 -1l6 24h109zM183 363l-9 -31q-4 -15 13 -15h161q8 0 16 -2l9 34q0 14 -13 14h-161h-16z" />
    <glyph glyph-name="dieresis" unicode="&#xa8;" 
d="M278 761q0 29 20 49t49 20t49 -20.5t20 -48.5q0 -29 -20.5 -49t-49.5 -20q-28 0 -48 20t-20 49zM78 761q0 29 20 49t49 20t49 -20.5t20 -48.5q0 -29 -20.5 -49t-49.5 -20q-28 0 -48 20t-20 49z" />
    <glyph glyph-name="copyright" unicode="&#xa9;" horiz-adv-x="624" 
d="M541 204q0 -45 -31.5 -75.5t-74.5 -30.5h-259q-46 0 -75.5 30t-29.5 76v271q0 43 30 74.5t75 31.5h259q43 0 74.5 -30.5t31.5 -75.5v-271zM482 191v297q0 34 -37 34h-280q-36 0 -36 -37v-288q0 -16 12 -28t26 -12h278q37 0 37 34zM414 274q0 -29 -19.5 -48.5t-47.5 -19.5
h-88q-29 0 -48 19.5t-19 48.5v128q0 28 19 47.5t48 19.5h88q28 0 47.5 -19t19.5 -48v-21h-52v16q0 20 -21 20h-79q-18 0 -18 -21v-115q0 -23 21 -23h76q21 0 21 20v17h52v-21z" />
    <glyph glyph-name="ordfeminine" unicode="&#xaa;" horiz-adv-x="348" 
d="M133 580l1 1h80l1 22q0 5 -4 7h-72q-6 0 -6 -6v-24zM61 330v53h61q-27 4 -44 24.5t-17 46.5v54q0 50 46 68h-46v33q0 31 21.5 52t51.5 21h80q31 0 52 -21.5t21 -51.5v-155q0 -28 -17.5 -47.5t-43.5 -23.5h60v-53h-225zM215 502q0 5 -4 7h-72q-6 0 -6 -5v-45q0 -5 5 -5h70
q7 0 7 7v41z" />
    <glyph glyph-name="guillemotleft" unicode="&#xab;" horiz-adv-x="565" 
d="M504 85l-232 150v76l232 150l29 -29l-159 -160l159 -158zM323 85l-233 150v76l233 150l29 -29l-159 -160l159 -158z" />
    <glyph glyph-name="logicalnot" unicode="&#xac;" horiz-adv-x="511" 
d="M329 -3v161h-245v91h336v-252h-91z" />
    <glyph glyph-name="hyphen" unicode="&#xad;" 
d="M101 198v107h296v-107h-296z" />
    <glyph glyph-name="registered" unicode="&#xae;" horiz-adv-x="624" 
d="M538 203q0 -45 -30.5 -75.5t-73.5 -30.5h-258q-46 0 -76 30t-30 76v268q0 44 30.5 75.5t75.5 31.5h258q43 0 73.5 -30.5t30.5 -76.5v-268zM481 191v295q0 14 -11.5 23t-26.5 9h-279q-34 0 -34 -36v-286q0 -16 11.5 -28t24.5 -12h277q15 0 26.5 9.5t11.5 25.5zM412 205
h-52v70q0 20 -18 20h-99v-90h-52v261h155q27 0 46.5 -19.5t19.5 -45.5v-39q0 -23 -12 -42q12 -21 12 -39v-76zM360 369v25q0 22 -18 22h-99v-69h97q20 0 20 22z" />
    <glyph glyph-name="macron" unicode="&#xaf;" 
d="M59 692v80h378v-80h-378z" />
    <glyph glyph-name="degree" unicode="&#xb0;" horiz-adv-x="305" 
d="M194 494h-88q-20 0 -33.5 14t-13.5 35v89q0 19 13.5 34.5t33.5 15.5h88q20 0 33.5 -14.5t13.5 -35.5v-89q0 -20 -13.5 -34.5t-33.5 -14.5zM181 556v64h-61v-64h61z" />
    <glyph glyph-name="plusminus" unicode="&#xb1;" 
d="M59 16v107h135v134h-135v107h135v135h107v-135h136v-107h-136v-134h136v-107h-378z" />
    <glyph glyph-name="twosuperior" unicode="&#xb2;" horiz-adv-x="420" 
d="M355 280v107h-86v-19h-117v55q0 11 12 11h99q18 0 35 7t29.5 19.5t20 29t7.5 36.5v64q0 19 -7 36t-19.5 29.5t-29.5 19.5t-36 7h-106q-18 0 -35 -7t-29.5 -19.5t-20 -29.5t-7.5 -36v-39h87v34q0 11 12 11h93q12 0 12 -13v-53q0 -9 -13 -9h-99q-18 0 -35 -7t-29.5 -20
t-20 -30t-7.5 -36v-148h290z" />
    <glyph glyph-name="threesuperior" unicode="&#xb3;" horiz-adv-x="420" 
d="M264 280q10 0 28 5t35 22t22 35t5 28v73q0 21 -6.5 32t-15.5 17q8 6 15 17t7 31v52q0 16 -6.5 33t-18.5 30q-16 17 -35.5 22t-29.5 5h-110q-17 0 -34.5 -7.5t-28.5 -18.5q-9 -10 -17.5 -27t-8.5 -37v-41h86v33q0 4 1.5 7.5t10.5 3.5h94q4 0 7.5 -1.5t3.5 -10.5v-51
q0 -3 -2.5 -7t-10.5 -4h-63v-87h63q4 0 8.5 -1.5t4.5 -9.5v-44q0 -8 -4.5 -9.5t-6.5 -1.5h-94q-9 0 -10.5 4t-1.5 6v17q0 16 -13 24.5t-30 8.5q-22 0 -32.5 -11.5t-10.5 -21.5v-45q0 -13 8 -27.5t18 -22.5q11 -9 28.5 -14.5t34.5 -5.5h110z" />
    <glyph glyph-name="acute" unicode="&#xb4;" 
d="M140 690l-31 33l218 148l75 -100z" />
    <glyph glyph-name="mu" unicode="&#xb5;" horiz-adv-x="595" 
d="M447 -3q-35 0 -65 20q-29 -20 -64 -20h-142q-7 0 -10 1v-177h-107v684h107v-380q0 -20 18 -20h124q21 0 21 18v382h108v-382q0 -18 19 -18h70v-108h-79z" />
    <glyph glyph-name="paragraph" unicode="&#xb6;" horiz-adv-x="528" 
d="M369 -179v753h-31v-753h-91v471h-92q-40 0 -68 34.5t-28 83.5v153q0 47 27 83t69 36h305v-861h-91z" />
    <glyph glyph-name="periodcentered" unicode="&#xb7;" horiz-adv-x="300" 
d="M88 192v119h119v-119h-119z" />
    <glyph glyph-name="periodcentered" unicode="&#x2219;" horiz-adv-x="300" 
d="M88 192v119h119v-119h-119z" />
    <glyph glyph-name="cedilla" unicode="&#xb8;" 
d="M307 -179h-93q-26 0 -45 18t-19 46v29h65v-25q0 -3 3 -3h87q1 1 2 3v32q-1 3 -5 3h-28q-26 0 -45 18.5t-19 45.5v41h65v-38q0 -1 3 -2h29q26 0 45.5 -18.5t19.5 -45.5v-40q0 -27 -18.5 -45.5t-46.5 -18.5z" />
    <glyph glyph-name="onesuperior" unicode="&#xb9;" horiz-adv-x="252" 
d="M181 280v402h-122v-86h35v-316h87z" />
    <glyph glyph-name="ordmasculine" unicode="&#xba;" horiz-adv-x="348" 
d="M61 330v53h59q-27 4 -43.5 23.5t-16.5 47.5v155q0 30 21 51.5t52 21.5h80q29 0 51 -21.5t22 -51.5v-155q0 -28 -17.5 -47.5t-43.5 -23.5h61v-53h-225zM214 604q0 6 -7 6h-71q-4 -2 -4 -7v-142q0 -7 6 -7h69q5 0 7 4v146z" />
    <glyph glyph-name="guillemotright" unicode="&#xbb;" horiz-adv-x="565" 
d="M231 85l-29 29l159 158l-159 160l29 29l234 -150v-76zM50 85l-29 29l159 158l-159 160l29 29l234 -150v-76z" />
    <glyph glyph-name="onequarter" unicode="&#xbc;" horiz-adv-x="736" 
d="M181 280v402h-122v-86h35v-316h87zM504 664l-63 34l-350 -684l63 -33zM665 -4v402h-86v-188h-112v76l35 35q2 2 3.5 4.5t1.5 9.5q0 9 -6 19t-15 18t-19.5 13.5t-18.5 5.5q-7 0 -9.5 -1.5t-4.5 -3.5l-53 -53v-210h198v-127h86z" />
    <glyph glyph-name="onehalf" unicode="&#xbd;" horiz-adv-x="736" 
d="M375 -4v148q0 39 27.5 66t64.5 27h99q13 0 13 9v53q0 13 -12 13h-93q-12 0 -12 -11v-34h-87v39q0 39 27.5 65.5t64.5 26.5h106q39 0 65.5 -27t26.5 -65v-64q0 -39 -27.5 -65.5t-64.5 -26.5h-99q-12 0 -12 -11v-55h117v19h86v-107h-290zM154 -19l-63 33l350 684l63 -34z
M94 280v316h-35v86h122v-402h-87z" />
    <glyph glyph-name="threequarters" unicode="&#xbe;" horiz-adv-x="872" 
d="M640 664l-63 34l-350 -684l63 -33zM801 -4v404h-86v-188h-112v76l35 35q2 2 3.5 4.5t1.5 9.5q0 9 -6 19t-15 18t-19.5 13.5t-18.5 5.5q-7 0 -9.5 -1.5t-4.5 -3.5l-53 -53v-210h198v-129h86zM258 280q10 0 28 5t35 22t22 35t5 28v73q0 21 -6.5 32t-15.5 17q8 6 15 17t7 31
v52q0 16 -6.5 33t-18.5 30q-16 17 -35.5 22t-29.5 5h-110q-17 0 -34.5 -7.5t-28.5 -18.5q-9 -10 -17.5 -27t-8.5 -37v-41h86v33q0 4 1.5 7.5t10.5 3.5h94q4 0 7.5 -1.5t3.5 -10.5v-51q0 -3 -2.5 -7t-10.5 -4h-63v-87h63q4 0 8.5 -1.5t4.5 -9.5v-44q0 -8 -4.5 -9.5t-6.5 -1.5
h-94q-9 0 -10.5 4t-1.5 6v17q0 16 -13 24.5t-30 8.5q-22 0 -32.5 -11.5t-10.5 -21.5v-45q0 -13 8 -27.5t18 -22.5q11 -9 28.5 -14.5t34.5 -5.5h110z" />
    <glyph glyph-name="questiondown" unicode="&#xbf;" horiz-adv-x="542" 
d="M237 386v119h120v-119h-120zM354 -179h-178q-50 0 -83.5 35t-33.5 83v130q0 50 34.5 84.5t82.5 34.5h40q21 0 21 17v136h120v-155q0 -50 -35.5 -83.5t-83.5 -33.5h-40q-20 0 -20 -19v-89q0 -21 17 -21h138q21 0 21 18v53h119v-72q0 -50 -35 -84t-84 -34z" />
    <glyph glyph-name="Agrave" unicode="&#xc0;" 
d="M355 690l-263 81l76 100l217 -148zM329 -3v248h-163v-248h-107v566q0 50 34.5 84.5t82.5 34.5h142q48 0 83.5 -34.5t35.5 -84.5v-566h-108zM329 556q0 18 -21 18h-122q-20 0 -20 -18v-204h163v204z" />
    <glyph glyph-name="Aacute" unicode="&#xc1;" 
d="M140 690l-31 33l218 148l75 -100zM329 -3v248h-163v-248h-107v566q0 50 34.5 84.5t82.5 34.5h142q48 0 83.5 -34.5t35.5 -84.5v-566h-108zM329 556q0 18 -21 18h-122q-20 0 -20 -18v-204h163v204z" />
    <glyph glyph-name="Acircumflex" unicode="&#xc2;" 
d="M351 686l-104 102l-102 -102l-57 57l127 127h65l127 -127zM329 -3v248h-163v-248h-107v566q0 50 34.5 84.5t82.5 34.5h142q48 0 83.5 -34.5t35.5 -84.5v-566h-108zM329 556q0 18 -21 18h-122q-20 0 -20 -18v-204h163v204z" />
    <glyph glyph-name="Atilde" unicode="&#xc3;" 
d="M345 692h-44q-30 0 -50 15q-10 8 -32 38q-13 18 -28 18h-35q-9 0 -9 -9v-37h-81v41q0 36 25 60t60 24h44q29 0 49 -16q9 -7 33 -37q14 -17 28 -17h34q10 0 10 7v39h80v-42q0 -36 -24.5 -60t-59.5 -24zM329 -3v248h-163v-248h-107v566q0 50 34.5 84.5t82.5 34.5h142
q48 0 83.5 -34.5t35.5 -84.5v-566h-108zM329 556q0 18 -21 18h-122q-20 0 -20 -18v-204h163v204z" />
    <glyph glyph-name="Adieresis" unicode="&#xc4;" 
d="M278 761q0 29 20 49t49 20t49 -20.5t20 -48.5q0 -29 -20.5 -49t-49.5 -20q-28 0 -48 20t-20 49zM78 761q0 29 20 49t49 20t49 -20.5t20 -48.5q0 -29 -20.5 -49t-49.5 -20q-28 0 -48 20t-20 49zM329 -3v248h-163v-248h-107v566q0 50 34.5 84.5t82.5 34.5h142
q48 0 83.5 -34.5t35.5 -84.5v-566h-108zM329 556q0 18 -21 18h-122q-20 0 -20 -18v-204h163v204z" />
    <glyph glyph-name="Aring" unicode="&#xc5;" 
d="M247 692q-40 0 -68.5 28.5t-28.5 68.5q0 41 28 69.5t69 28.5t69.5 -28.5t28.5 -69.5q0 -40 -29 -68.5t-69 -28.5zM247 829q-37 0 -39 -40q4 -36 39 -39q35 3 39 39q-2 40 -39 40zM328 -3v248h-163v-248h-108v566q0 50 35 84.5t83 34.5h141q49 0 84 -34.5t35 -84.5v-566
h-107zM328 556q0 18 -21 18h-122q-20 0 -20 -18v-204h163v204z" />
    <glyph glyph-name="AE" unicode="&#xc6;" horiz-adv-x="780" 
d="M694 -3h-365v248h-163v-248h-107v566q0 50 34.5 84.5t82.5 34.5h531v-108h-270v-163h212v-107h-212v-199h257q18 0 28.5 -17t10.5 -37t-10.5 -37t-28.5 -17zM329 574h-143q-20 0 -20 -18v-204h163v222z" />
    <glyph glyph-name="Ccedilla" unicode="&#xc7;" 
d="M318 -3h-43v-6q0 -1 3 -2h29q26 0 45.5 -18.5t19.5 -45.5v-40q0 -27 -18.5 -45.5t-46.5 -18.5h-93q-26 0 -45 18t-19 46v29h65v-25q0 -3 3 -3h87q1 1 2 3v32q-1 3 -5 3h-28q-26 0 -45 18.5t-19 45.5v9h-34q-51 0 -84 34t-33 85v447q0 48 33.5 83.5t83.5 35.5h142
q48 0 83.5 -34.5t35.5 -84.5v-47h-108v40q0 18 -21 18h-124q-18 0 -18 -20v-426q0 -23 20 -23h122q21 0 21 18v41h108v-48q0 -50 -35.5 -84.5t-83.5 -34.5z" />
    <glyph glyph-name="Egrave" unicode="&#xc8;" 
d="M355 690l-263 81l76 100l217 -148zM59 -3v685h378v-108h-271v-163h213v-107h-213v-199h271v-108h-378z" />
    <glyph glyph-name="Eacute" unicode="&#xc9;" 
d="M140 690l-31 33l218 148l75 -100zM59 -3v685h378v-108h-271v-163h213v-107h-213v-199h271v-108h-378z" />
    <glyph glyph-name="Ecircumflex" unicode="&#xca;" 
d="M351 686l-104 102l-102 -102l-57 57l127 127h65l127 -127zM59 -3v685h378v-108h-271v-163h213v-107h-213v-199h271v-108h-378z" />
    <glyph glyph-name="Edieresis" unicode="&#xcb;" 
d="M278 761q0 29 20 49t49 20t49 -20.5t20 -48.5q0 -29 -20.5 -49t-49.5 -20q-28 0 -48 20t-20 49zM78 761q0 29 20 49t49 20t49 -20.5t20 -48.5q0 -29 -20.5 -49t-49.5 -20q-28 0 -48 20t-20 49zM59 -3v685h378v-108h-271v-163h213v-107h-213v-199h271v-108h-378z" />
    <glyph glyph-name="Igrave" unicode="&#xcc;" horiz-adv-x="276" 
d="M208 690l-263 81l76 100l217 -148zM82 -3v685h107v-685h-107z" />
    <glyph glyph-name="Iacute" unicode="&#xcd;" horiz-adv-x="276" 
d="M64 690l-30 33l217 148l76 -100zM82 -3v685h107v-685h-107z" />
    <glyph glyph-name="Icircumflex" unicode="&#xce;" horiz-adv-x="276" 
d="M245 686l-104 102l-102 -102l-57 57l127 127h65l128 -127zM88 -3v685h107v-685h-107z" />
    <glyph glyph-name="Idieresis" unicode="&#xcf;" horiz-adv-x="276" 
d="M169 761q0 28 20.5 48.5t48.5 20.5t48.5 -20.5t20.5 -48.5t-20.5 -48.5t-48.5 -20.5t-48.5 20.5t-20.5 48.5zM-31 761q0 28 20.5 48.5t48.5 20.5t48.5 -20.5t20.5 -48.5t-20.5 -48.5t-48.5 -20.5t-48.5 20.5t-20.5 48.5zM84 -3v685h108v-685h-108z" />
    <glyph glyph-name="Eth" unicode="&#xd0;" 
d="M329 123q0 -18 -21 -18h-142v199h70v107h-70v163h142q21 0 21 -18v-433zM318 -3q49 0 83 34q36 34 36 85v447q0 49 -36 84q-35 35 -83 35h-259v-271h-59v-107h59v-307h259z" />
    <glyph glyph-name="Ntilde" unicode="&#xd1;" 
d="M345 692h-44q-30 0 -50 15q-10 8 -32 38q-13 18 -28 18h-35q-9 0 -9 -9v-37h-81v41q0 36 25 60t60 24h44q29 0 49 -16q9 -7 33 -37q14 -17 28 -17h34q10 0 10 7v39h80v-42q0 -36 -24.5 -60t-59.5 -24zM311 -3l-145 402v-402h-107v685h118l152 -419v419h108v-685h-126z
" />
    <glyph glyph-name="Ograve" unicode="&#xd2;" 
d="M355 690l-263 81l76 100l217 -148zM318 -3h-142q-51 0 -84 34t-33 85v447q0 48 33.5 83.5t83.5 35.5h142q48 0 83.5 -34.5t35.5 -84.5v-447q0 -50 -35.5 -84.5t-83.5 -34.5zM329 556q0 18 -21 18h-124q-18 0 -18 -20v-426q0 -23 20 -23h122q21 0 21 18v433z" />
    <glyph glyph-name="Oacute" unicode="&#xd3;" 
d="M140 690l-31 33l218 148l75 -100zM318 -3h-142q-51 0 -84 34t-33 85v447q0 48 33.5 83.5t83.5 35.5h142q48 0 83.5 -34.5t35.5 -84.5v-447q0 -50 -35.5 -84.5t-83.5 -34.5zM329 556q0 18 -21 18h-124q-18 0 -18 -20v-426q0 -23 20 -23h122q21 0 21 18v433z" />
    <glyph glyph-name="Ocircumflex" unicode="&#xd4;" 
d="M351 686l-104 102l-102 -102l-57 57l127 127h65l127 -127zM318 -3h-142q-51 0 -84 34t-33 85v447q0 48 33.5 83.5t83.5 35.5h142q48 0 83.5 -34.5t35.5 -84.5v-447q0 -50 -35.5 -84.5t-83.5 -34.5zM329 556q0 18 -21 18h-124q-18 0 -18 -20v-426q0 -23 20 -23h122
q21 0 21 18v433z" />
    <glyph glyph-name="Otilde" unicode="&#xd5;" 
d="M345 692h-44q-30 0 -50 15q-10 8 -32 38q-13 18 -28 18h-35q-9 0 -9 -9v-37h-81v41q0 36 25 60t60 24h44q29 0 49 -16q9 -7 33 -37q14 -17 28 -17h34q10 0 10 7v39h80v-42q0 -36 -24.5 -60t-59.5 -24zM318 -3h-142q-51 0 -84 34t-33 85v447q0 48 33.5 83.5t83.5 35.5h142
q48 0 83.5 -34.5t35.5 -84.5v-447q0 -50 -35.5 -84.5t-83.5 -34.5zM329 556q0 18 -21 18h-124q-18 0 -18 -20v-426q0 -23 20 -23h122q21 0 21 18v433z" />
    <glyph glyph-name="Odieresis" unicode="&#xd6;" 
d="M278 761q0 29 20 49t49 20t49 -20.5t20 -48.5q0 -29 -20.5 -49t-49.5 -20q-28 0 -48 20t-20 49zM78 761q0 29 20 49t49 20t49 -20.5t20 -48.5q0 -29 -20.5 -49t-49.5 -20q-28 0 -48 20t-20 49zM318 -3h-142q-51 0 -84 34t-33 85v447q0 48 33.5 83.5t83.5 35.5h142
q48 0 83.5 -34.5t35.5 -84.5v-447q0 -50 -35.5 -84.5t-83.5 -34.5zM329 556q0 18 -21 18h-124q-18 0 -18 -20v-426q0 -23 20 -23h122q21 0 21 18v433z" />
    <glyph glyph-name="multiply" unicode="&#xd7;" 
d="M440 367l-76 76l-116 -116l-116 116l-76 -76l116 -116l-116 -115l76 -76l116 116l116 -116l76 76l-116 115z" />
    <glyph glyph-name="Oslash" unicode="&#xd8;" 
d="M318 -3h-142q-14 0 -25 3l-12 -30l-67 27l15 38q-28 32 -28 81v447q0 48 33.5 83.5t83.5 35.5h142q14 0 29 -5l13 31l68 -26l-19 -43q28 -33 28 -76v-447q0 -50 -35.5 -84.5t-83.5 -34.5zM305 574h-121q-18 0 -18 -20v-326zM192 105h116q21 0 21 18v316z" />
    <glyph glyph-name="Ugrave" unicode="&#xd9;" 
d="M355 690l-263 81l76 100l217 -148zM318 -3h-142q-48 0 -82.5 34.5t-34.5 84.5v566h107v-559q0 -18 20 -18h122q21 0 21 18v559h108v-566q0 -50 -35.5 -84.5t-83.5 -34.5z" />
    <glyph glyph-name="Uacute" unicode="&#xda;" 
d="M140 690l-31 33l218 148l75 -100zM318 -3h-142q-48 0 -82.5 34.5t-34.5 84.5v566h107v-559q0 -18 20 -18h122q21 0 21 18v559h108v-566q0 -50 -35.5 -84.5t-83.5 -34.5z" />
    <glyph glyph-name="Ucircumflex" unicode="&#xdb;" 
d="M320 686l-104 102l-102 -102l-57 57l127 127h66l127 -127zM318 -3h-142q-48 0 -82.5 34.5t-34.5 84.5v566h107v-559q0 -18 20 -18h122q21 0 21 18v559h108v-566q0 -50 -35.5 -84.5t-83.5 -34.5z" />
    <glyph glyph-name="Udieresis" unicode="&#xdc;" 
d="M278 761q0 29 20 49t49 20t49 -20.5t20 -48.5q0 -29 -20.5 -49t-49.5 -20q-28 0 -48 20t-20 49zM78 761q0 29 20 49t49 20t49 -20.5t20 -48.5q0 -29 -20.5 -49t-49.5 -20q-28 0 -48 20t-20 49zM318 -3h-142q-48 0 -82.5 34.5t-34.5 84.5v566h107v-559q0 -18 20 -18h122
q21 0 21 18v559h108v-566q0 -50 -35.5 -84.5t-83.5 -34.5z" />
    <glyph glyph-name="Yacute" unicode="&#xdd;" horiz-adv-x="482" 
d="M307 304q49 0 83 34q36 34 36 84v260h-108v-253q0 -18 -21 -18h-122q-20 0 -20 18v253h-107v-260q0 -50 34 -84t83 -34h19v-307h107v307h16zM426 771l-75 100l-218 -148l31 -33z" />
    <glyph glyph-name="Thorn" unicode="&#xde;" horiz-adv-x="499" 
d="M329 314q0 -23 -21 -23h-142v163h145q18 0 18 -20v-120zM318 184q25 0 47 9t38 24.5t25 37t9 47.5v141q0 48 -35 83q-35 36 -84 36h-152v120h-107v-685h107v187h152z" />
    <glyph glyph-name="germandbls" unicode="&#xdf;" 
d="M318 -3h-125v108h115q21 0 21 23v102q0 18 -42 37q-87 38 -87 105q0 62 67 128q25 23 25 32v22q0 20 -19 20h-87q-20 0 -20 -18v-693h-107v700q0 50 34.5 84.5t82.5 34.5h104q50 0 84.5 -35.5t34.5 -83.5v-17q0 -45 -26 -79l-56 -60q-15 -16 -15 -25q0 -16 34 -28
q101 -37 101 -124v-114q0 -51 -34 -85t-85 -34z" />
    <glyph glyph-name="agrave" unicode="&#xe0;" 
d="M355 525l-263 82l76 99l217 -148zM309 -3h-142q-50 0 -83.5 35t-33.5 84v94q0 50 34.5 84.5t82.5 34.5h142q7 0 11 -1v49q0 21 -18 21h-157q-18 0 -28.5 16.5t-10.5 36.5t10.5 37t28.5 17h164q50 0 84.5 -35t34.5 -84v-270q0 -50 -35.5 -84.5t-83.5 -34.5zM320 201
q0 21 -18 21h-125q-20 0 -20 -19v-78q0 -20 18 -20h124q21 0 21 23v73z" />
    <glyph glyph-name="aacute" unicode="&#xe1;" 
d="M138 525l-30 33l217 148l76 -99zM309 -3h-142q-50 0 -83.5 35t-33.5 84v94q0 50 34.5 84.5t82.5 34.5h142q7 0 11 -1v49q0 21 -18 21h-157q-18 0 -28.5 16.5t-10.5 36.5t10.5 37t28.5 17h164q50 0 84.5 -35t34.5 -84v-270q0 -50 -35.5 -84.5t-83.5 -34.5zM320 201
q0 21 -18 21h-125q-20 0 -20 -19v-78q0 -20 18 -20h124q21 0 21 23v73z" />
    <glyph glyph-name="acircumflex" unicode="&#xe2;" 
d="M351 521l-104 103l-102 -103l-57 57l127 127h65l127 -127zM309 -3h-142q-50 0 -83.5 35t-33.5 84v94q0 50 34.5 84.5t82.5 34.5h142q7 0 11 -1v49q0 21 -18 21h-157q-18 0 -28.5 16.5t-10.5 36.5t10.5 37t28.5 17h164q50 0 84.5 -35t34.5 -84v-270q0 -50 -35.5 -84.5
t-83.5 -34.5zM320 201q0 21 -18 21h-125q-20 0 -20 -19v-78q0 -20 18 -20h124q21 0 21 23v73z" />
    <glyph glyph-name="atilde" unicode="&#xe3;" 
d="M345 527h-44q-30 0 -50 15q-10 8 -32 38q-13 18 -28 18h-35q-9 0 -9 -9v-37h-81v42q0 36 25 59.5t60 23.5h44q29 0 48 -16q10 -7 34 -36q14 -17 28 -17h34q10 0 10 7v39h80v-43q0 -36 -24.5 -60t-59.5 -24zM309 -3h-142q-50 0 -83.5 35t-33.5 84v94q0 50 34.5 84.5
t82.5 34.5h142q7 0 11 -1v49q0 21 -18 21h-157q-18 0 -28.5 16.5t-10.5 36.5t10.5 37t28.5 17h164q50 0 84.5 -35t34.5 -84v-270q0 -50 -35.5 -84.5t-83.5 -34.5zM320 201q0 21 -18 21h-125q-20 0 -20 -19v-78q0 -20 18 -20h124q21 0 21 23v73z" />
    <glyph glyph-name="adieresis" unicode="&#xe4;" 
d="M278 595q0 29 20 49.5t48 20.5q29 0 49.5 -20.5t20.5 -48.5q0 -29 -20.5 -49t-48.5 -20q-29 0 -49 20t-20 48zM78 595q0 29 20 49.5t48 20.5q29 0 49.5 -20.5t20.5 -48.5q0 -29 -20.5 -49t-48.5 -20q-29 0 -49 20t-20 48zM309 -3h-142q-50 0 -83.5 35t-33.5 84v94
q0 50 34.5 84.5t82.5 34.5h142q7 0 11 -1v49q0 21 -18 21h-157q-18 0 -28.5 16.5t-10.5 36.5t10.5 37t28.5 17h164q50 0 84.5 -35t34.5 -84v-270q0 -50 -35.5 -84.5t-83.5 -34.5zM320 201q0 21 -18 21h-125q-20 0 -20 -19v-78q0 -20 18 -20h124q21 0 21 23v73z" />
    <glyph glyph-name="aring" unicode="&#xe5;" 
d="M247 527q-40 0 -68.5 28.5t-28.5 68.5q0 41 28 69.5t69 28.5t69.5 -28.5t28.5 -69.5q0 -40 -29 -68.5t-69 -28.5zM247 664q-37 0 -39 -40q4 -35 39 -39q35 4 39 39q-2 40 -39 40zM309 -3h-142q-50 0 -83.5 35t-33.5 84v94q0 50 34.5 84.5t82.5 34.5h142q7 0 11 -1v49
q0 21 -18 21h-157q-18 0 -28.5 16.5t-10.5 36.5t10.5 37t28.5 17h164q50 0 84.5 -35t34.5 -84v-270q0 -50 -35.5 -84.5t-83.5 -34.5zM320 201q0 21 -18 21h-125q-20 0 -20 -19v-78q0 -20 18 -20h124q21 0 21 23v73z" />
    <glyph glyph-name="ae" unicode="&#xe6;" horiz-adv-x="780" 
d="M437 198v-73q0 -20 17 -20h252v-47q0 -45 -42 -56q-16 -5 -76 -5h-141q-35 0 -65 19q-29 -19 -64 -19h-142q-50 0 -83.5 35t-33.5 84v94q0 50 34.5 84.5t82.5 34.5h142q7 0 11 -1v49q0 21 -18 21h-156q-18 0 -28.5 17t-10.5 36q0 20 10.5 37t28.5 17h163q36 0 64 -20
q29 20 65 20h141q50 0 84.5 -35t34.5 -84v-188h-270zM600 377q0 21 -19 21h-125q-19 0 -19 -23v-70h163v72zM329 201q0 21 -18 21h-125q-20 0 -20 -19v-78q0 -20 18 -20h124q21 0 21 23v73z" />
    <glyph glyph-name="ccedilla" unicode="&#xe7;" 
d="M318 -3h-43v-6q0 -1 3 -2h29q26 0 45.5 -18.5t19.5 -45.5v-40q0 -27 -18.5 -45.5t-46.5 -18.5h-93q-26 0 -45 18t-19 46v29h65v-25q0 -3 3 -3h87q1 1 2 3v32q-1 3 -5 3h-28q-26 0 -45 18.5t-19 45.5v9h-34q-51 0 -84 34t-33 85v270q0 49 33.5 84t83.5 35h142
q48 0 83.5 -34t35.5 -85v-47h-108v40q0 19 -21 19h-124q-18 0 -18 -21v-249q0 -23 20 -23h122q21 0 21 18v41h108v-48q0 -50 -35.5 -84.5t-83.5 -34.5z" />
    <glyph glyph-name="egrave" unicode="&#xe8;" 
d="M355 525l-263 82l76 99l217 -148zM221 198q-18 0 -28 16.5t-10 36.5t10 37t29 17h107v72q0 21 -18 21h-125q-20 0 -20 -23v-250q0 -20 18 -20h247v-44q0 -46 -39 -58q-17 -6 -74 -6h-142q-50 0 -83.5 35t-33.5 84v270q0 51 34.5 85t82.5 34h142q50 0 84.5 -35t34.5 -84
v-188h-216z" />
    <glyph glyph-name="eacute" unicode="&#xe9;" 
d="M138 525l-30 33l217 148l76 -99zM221 198q-18 0 -28 16.5t-10 36.5t10 37t29 17h107v72q0 21 -18 21h-125q-20 0 -20 -23v-250q0 -20 18 -20h247v-44q0 -46 -39 -58q-17 -6 -74 -6h-142q-50 0 -83.5 35t-33.5 84v270q0 51 34.5 85t82.5 34h142q50 0 84.5 -35t34.5 -84
v-188h-216z" />
    <glyph glyph-name="ecircumflex" unicode="&#xea;" 
d="M351 521l-104 103l-102 -103l-57 57l127 127h65l127 -127zM221 198q-18 0 -28 16.5t-10 36.5t10 37t29 17h107v72q0 21 -18 21h-125q-20 0 -20 -23v-250q0 -20 18 -20h247v-44q0 -46 -39 -58q-17 -6 -74 -6h-142q-50 0 -83.5 35t-33.5 84v270q0 51 34.5 85t82.5 34h142
q50 0 84.5 -35t34.5 -84v-188h-216z" />
    <glyph glyph-name="edieresis" unicode="&#xeb;" 
d="M278 595q0 29 20 49.5t48 20.5q29 0 49.5 -20.5t20.5 -48.5q0 -29 -20.5 -49t-48.5 -20q-29 0 -49 20t-20 48zM78 595q0 29 20 49.5t48 20.5q29 0 49.5 -20.5t20.5 -48.5q0 -29 -20.5 -49t-48.5 -20q-29 0 -49 20t-20 48zM221 198q-18 0 -28 16.5t-10 36.5t10 37t29 17
h107v72q0 21 -18 21h-125q-20 0 -20 -23v-250q0 -20 18 -20h247v-44q0 -46 -39 -58q-17 -6 -74 -6h-142q-50 0 -83.5 35t-33.5 84v270q0 51 34.5 85t82.5 34h142q50 0 84.5 -35t34.5 -84v-188h-216z" />
    <glyph glyph-name="igrave" unicode="&#xec;" horiz-adv-x="276" 
d="M208 525l-263 82l76 99l217 -148zM160 -8q-24 0 -54 30q-22 24 -43 49l-1 434h108v-390l39 -39q9 -9 9 -23q0 -23 -19 -42t-39 -19z" />
    <glyph glyph-name="iacute" unicode="&#xed;" horiz-adv-x="276" 
d="M62 525l-30 33l217 148l76 -99zM160 -8q-24 0 -54 30q-22 24 -43 49l-1 434h108v-390l39 -39q9 -9 9 -23q0 -23 -19 -42t-39 -19z" />
    <glyph glyph-name="icircumflex" unicode="&#xee;" horiz-adv-x="276" 
d="M240 521l-104 103l-102 -103l-57 57l127 127h66l127 -127zM181 -8q-24 0 -54 30q-22 24 -43 49l-1 434h108v-390l39 -39q9 -9 9 -23q0 -23 -19 -42t-39 -19z" />
    <glyph glyph-name="idieresis" unicode="&#xef;" horiz-adv-x="276" 
d="M167 595q0 29 20 49.5t48 20.5q29 0 50 -20t21 -49t-21 -49t-49 -20t-48.5 20t-20.5 48zM-33 595q0 29 20 49.5t48 20.5q29 0 50 -20t21 -49t-21 -49t-49 -20t-48.5 20t-20.5 48zM172 -8q-24 0 -54 30q-22 24 -43 49l-1 434h108v-390l39 -39q9 -9 9 -23q0 -23 -19 -42
t-39 -19z" />
    <glyph glyph-name="eth" unicode="&#xf0;" 
d="M319 -3q49 0 83 34q35 35 35 85v389l-61 68h61v72h-127l-33 37h-107l33 -37h-109v-72h175l61 -68v-377q0 -23 -21 -23h-125q-17 0 -17 20v254q0 19 20 19h88q18 0 28 16.5t10 36.5q0 54 -37 54h-99q-49 0 -83 -34q-35 -35 -35 -85v-270q0 -50 34 -84q35 -35 84 -35h142z
" />
    <glyph glyph-name="ntilde" unicode="&#xf1;" 
d="M345 527h-44q-30 0 -50 15q-10 8 -32 38q-13 18 -28 18h-35q-9 0 -9 -9v-37h-81v42q0 36 25 59.5t60 23.5h44q29 0 48 -16q10 -7 34 -36q14 -17 28 -17h34q10 0 10 7v39h80v-43q0 -36 -24.5 -60t-59.5 -24zM329 -3v382q0 19 -21 19h-142v-401h-107v508h259q48 0 83.5 -34
t35.5 -85v-389h-108z" />
    <glyph glyph-name="ograve" unicode="&#xf2;" 
d="M355 525l-263 82l76 99l217 -148zM318 -3h-142q-51 0 -84 34t-33 85v270q0 49 33.5 84t83.5 35h142q48 0 83.5 -34t35.5 -85v-270q0 -50 -35.5 -84.5t-83.5 -34.5zM329 379q0 19 -21 19h-124q-18 0 -18 -21v-249q0 -23 20 -23h122q21 0 21 18v256z" />
    <glyph glyph-name="oacute" unicode="&#xf3;" 
d="M138 525l-30 33l217 148l76 -99zM318 -3h-142q-51 0 -84 34t-33 85v270q0 49 33.5 84t83.5 35h142q48 0 83.5 -34t35.5 -85v-270q0 -50 -35.5 -84.5t-83.5 -34.5zM329 379q0 19 -21 19h-124q-18 0 -18 -21v-249q0 -23 20 -23h122q21 0 21 18v256z" />
    <glyph glyph-name="ocircumflex" unicode="&#xf4;" 
d="M351 521l-104 103l-102 -103l-57 57l127 127h65l127 -127zM318 -3h-142q-51 0 -84 34t-33 85v270q0 49 33.5 84t83.5 35h142q48 0 83.5 -34t35.5 -85v-270q0 -50 -35.5 -84.5t-83.5 -34.5zM329 379q0 19 -21 19h-124q-18 0 -18 -21v-249q0 -23 20 -23h122q21 0 21 18v256
z" />
    <glyph glyph-name="otilde" unicode="&#xf5;" 
d="M345 527h-44q-30 0 -50 15q-10 8 -32 38q-13 18 -28 18h-35q-9 0 -9 -9v-37h-81v42q0 36 25 59.5t60 23.5h44q29 0 48 -16q10 -7 34 -36q14 -17 28 -17h34q10 0 10 7v39h80v-43q0 -36 -24.5 -60t-59.5 -24zM318 -3h-142q-51 0 -84 34t-33 85v270q0 49 33.5 84t83.5 35
h142q48 0 83.5 -34t35.5 -85v-270q0 -50 -35.5 -84.5t-83.5 -34.5zM329 379q0 19 -21 19h-124q-18 0 -18 -21v-249q0 -23 20 -23h122q21 0 21 18v256z" />
    <glyph glyph-name="odieresis" unicode="&#xf6;" 
d="M278 595q0 29 20 49.5t48 20.5q29 0 49.5 -20.5t20.5 -48.5q0 -29 -20.5 -49t-48.5 -20q-29 0 -49 20t-20 48zM78 595q0 29 20 49.5t48 20.5q29 0 49.5 -20.5t20.5 -48.5q0 -29 -20.5 -49t-48.5 -20q-29 0 -49 20t-20 48zM318 -3h-142q-51 0 -84 34t-33 85v270
q0 49 33.5 84t83.5 35h142q48 0 83.5 -34t35.5 -85v-270q0 -50 -35.5 -84.5t-83.5 -34.5zM329 379q0 19 -21 19h-124q-18 0 -18 -21v-249q0 -23 20 -23h122q21 0 21 18v256z" />
    <glyph glyph-name="divide" unicode="&#xf7;" 
d="M188 322v119h119v-119h-119zM59 198v107h378v-107h-378zM188 63v119h119v-119h-119z" />
    <glyph glyph-name="oslash" unicode="&#xf8;" 
d="M318 -3h-142q-15 0 -26 3l-19 -31l-62 36l18 31q-28 32 -28 80v270q0 49 33.5 84t83.5 35h142q19 0 37 -6l19 34l63 -36l-23 -41q23 -31 23 -70v-270q0 -50 -35.5 -84.5t-83.5 -34.5zM166 172l129 226h-111q-18 0 -18 -21v-205zM329 310l-119 -205h98q21 0 21 18v187z
" />
    <glyph glyph-name="ugrave" unicode="&#xf9;" 
d="M355 525l-263 82l76 99l217 -148zM176 -3q-48 0 -82.5 34.5t-34.5 84.5v389h107v-382q0 -18 20 -18h143v400h108v-508h-261z" />
    <glyph glyph-name="uacute" unicode="&#xfa;" 
d="M138 525l-30 33l217 148l76 -99zM176 -3q-48 0 -82.5 34.5t-34.5 84.5v389h107v-382q0 -18 20 -18h143v400h108v-508h-261z" />
    <glyph glyph-name="ucircumflex" unicode="&#xfb;" 
d="M351 521l-104 103l-102 -103l-57 57l127 127h65l127 -127zM176 -3q-48 0 -82.5 34.5t-34.5 84.5v389h107v-382q0 -18 20 -18h143v400h108v-508h-261z" />
    <glyph glyph-name="udieresis" unicode="&#xfc;" 
d="M278 595q0 29 20 49.5t48 20.5q29 0 49.5 -20.5t20.5 -48.5q0 -29 -20.5 -49t-48.5 -20q-29 0 -49 20t-20 48zM78 595q0 29 20 49.5t48 20.5q29 0 49.5 -20.5t20.5 -48.5q0 -29 -20.5 -49t-48.5 -20q-29 0 -49 20t-20 48zM176 -3q-48 0 -82.5 34.5t-34.5 84.5v389h107
v-382q0 -18 20 -18h143v400h108v-508h-261z" />
    <glyph glyph-name="yacute" unicode="&#xfd;" horiz-adv-x="502" 
d="M242 -70l-46 -38q-14 -12 -14 -30q0 -21 16 -38.5t35 -17.5q13 0 24 8l89 70l132 621h-115l-84 -405q-109 7 -109 173l1 232h-114l1 -233q0 -137 63 -210q52 -62 135 -64zM478 607l-76 99l-217 -148l30 -33z" />
    <glyph glyph-name="thorn" unicode="&#xfe;" 
d="M318 -5q32 0 52 11.5t31 22.5q23 23 29.5 44t6.5 41v272q0 24 -9.5 46t-25.5 38t-38 25.5t-46 9.5h-152v177h-107v-864h107v579h145q7 0 12.5 -4t5.5 -17v-255q0 -7 -4 -12.5t-17 -5.5h-88q-14 0 -26 -13.5t-12 -40.5q0 -20 5 -31t11 -16t12 -6t9 -1h99z" />
    <glyph glyph-name="ydieresis" unicode="&#xff;" 
d="M298 595q0 29 20 49.5t48 20.5q29 0 49.5 -20.5t20.5 -48.5q0 -29 -20.5 -49t-48.5 -20q-29 0 -49 20t-20 48zM98 595q0 29 20 49.5t48 20.5q29 0 49.5 -20.5t20.5 -48.5q0 -29 -20.5 -49t-48.5 -20q-29 0 -49 20t-20 48zM256 -2q-82 1 -135 64q-63 74 -63 210l-1 233
h114l-1 -232q0 -166 109 -173l84 405h115l-132 -621l-89 -70q-11 -8 -24 -8q-19 0 -35 17.5t-16 38.5q0 18 14 30l46 38z" />
    <glyph glyph-name=".null" horiz-adv-x="0" 
 />
    <glyph glyph-name="nonmarkingreturn" horiz-adv-x="300" 
 />
    <glyph glyph-name="notequal" 
d="M228 122l-45 -112l-66 27l34 85h-92v107h135l18 45h-153v108h197l48 118l66 -27l-37 -91h104v-108h-148l-18 -45h166v-107h-209z" />
    <glyph glyph-name="infinity" horiz-adv-x="624" 
d="M472 125q-21 -42 -66 -42q-32 0 -57 24l-51 50l-9 -19q-22 -44 -66 -44q-31 0 -57 25l-36 33q-42 38 -42 96q0 28 13 53l41 80q23 44 66 44q30 0 56 -25l36 -36l9 17q21 44 66 44q31 0 58 -25l50 -45q42 -37 42 -97q0 -28 -12 -52zM431 282q-42 39 -46 39t-7 -5l-39 -78
l38 -40q13 -14 19 -14t15 18q13 28 27 56q8 15 -7 24zM222 320q-7 8 -13 -3l-18 -30q-15 -27 -15 -44q0 -12 7 -19l24 -24q8 -6 13 3l40 79z" />
    <glyph glyph-name="lessequal" horiz-adv-x="381" 
d="M62 16v107h170l-170 169v67l176 176l76 -77l-132 -133l132 -133l-70 -69h65v-107h-247z" />
    <glyph glyph-name="greaterequal" horiz-adv-x="381" 
d="M66 16v107h64l-70 69l133 133l-133 133l76 77l177 -176v-67l-171 -169h171v-107h-247z" />
    <glyph glyph-name="partialdiff" horiz-adv-x="479" 
d="M294 -3h-118q-50 0 -83.5 35t-33.5 84v270q0 51 34.5 85t82.5 34h118q7 0 12 -1v50q0 20 -19 20h-123v108h130q50 0 84.5 -35.5t34.5 -83.5v-447q0 -50 -35 -84.5t-84 -34.5zM306 377q0 21 -19 21h-101q-20 0 -20 -19v-254q0 -20 18 -20h101q7 0 14 7t7 16v249z" />
    <glyph glyph-name="summation" horiz-adv-x="554" 
d="M59 -3v77l223 265l-223 266v77h427v-108h-261l197 -235l-196 -234h260v-108h-427z" />
    <glyph glyph-name="product" horiz-adv-x="624" 
d="M484 574v-577h-108v577h-139v-577h-108v577h-70v108h495v-108h-70z" />
    <glyph glyph-name="pi" horiz-adv-x="624" 
d="M484 398v-401h-108v401h-139v-401h-108v401h-70v107h495v-107h-70z" />
    <glyph glyph-name="integral" horiz-adv-x="576" 
d="M400 598v40q0 19 -21 19h-25q-17 0 -17 -21v-697q0 -48 -34.5 -83t-84.5 -35h-42q-48 0 -82.5 34t-34.5 84v48h107v-41q0 -18 20 -18h25q18 0 18 21v696q0 49 34 84t84 35h41q49 0 84 -34.5t35 -84.5v-47h-107z" />
    <glyph glyph-name="Omega" horiz-adv-x="756" 
d="M421 -3v108q33 0 33 18v433q0 18 -21 18h-125q-17 0 -17 -20v-426q0 -23 33 -23v-108h-264v182h107v-74h16v11v447q0 48 34 83.5t84 35.5h141q49 0 84 -34.5t35 -84.5v-447q0 -5 -1 -11h17v74h108v-182h-264z" />
    <glyph glyph-name="radical" horiz-adv-x="594" 
d="M223 -164l-209 297l88 62l103 -145l343 738h120z" />
    <glyph glyph-name="approxequal" horiz-adv-x="524" 
d="M372 279h-74q-27 0 -44 16q-6 5 -28 38q-11 17 -26 17h-51q-9 0 -9 -9v-37h-81v41q0 36 25 60t60 24h75q34 0 57 -35t38 -35h52q10 0 10 7v39h81v-42q0 -36 -25 -60t-60 -24zM372 119h-74q-27 0 -44 16q-6 5 -28 38q-11 17 -26 17h-51q-9 0 -9 -9v-37h-81v41q0 36 25 60
t60 24h75q34 0 57 -35t38 -35h52q10 0 10 7v39h81v-42q0 -36 -25 -60t-60 -24z" />
    <glyph glyph-name="lozenge" horiz-adv-x="582" 
d="M314 -179h-58l-201 430l201 431h58l200 -431zM285 491l-112 -240l112 -240l112 240z" />
    <glyph glyph-name="fraction" horiz-adv-x="821" 
d="M274 -19l-63 33l350 684l63 -34z" />
    <glyph glyph-name="dotlessi" horiz-adv-x="257" 
d="M160 -8q-24 0 -54 30q-22 24 -43 49l-1 434h108v-390l39 -39q9 -9 9 -23q0 -23 -19 -42t-39 -19z" />
    <glyph glyph-name="breve" 
d="M341 692h-189q-36 0 -59.5 24.5t-23.5 59.5v66h79v-60q0 -10 8 -10h179q11 0 11 7v63h80v-66q0 -36 -25 -60t-60 -24z" />
    <glyph glyph-name="dotaccent" 
d="M247 692q-28 0 -48 20t-20 49q-1 28 19 48.5t49 20.5t49.5 -20.5t19.5 -48.5q0 -29 -20.5 -49t-48.5 -20z" />
    <glyph glyph-name="ring" 
d="M247 692q-40 0 -68.5 28.5t-28.5 68.5q0 41 28 69.5t69 28.5t69.5 -28.5t28.5 -69.5q0 -40 -29 -68.5t-69 -28.5zM247 829q-37 0 -39 -40q4 -36 39 -39q35 3 39 39q-2 40 -39 40z" />
    <glyph glyph-name="hungarumlaut" 
d="M83 656l-40 20l154 214l104 -67l48 67l105 -67l-219 -167l-40 20l104 145z" />
    <glyph glyph-name="ogonek" 
d="M307 -179h-93q-27 0 -45.5 19t-18.5 45v40q0 27 19 45.5t45 18.5h30q2 1 3 2v38h65v-41q0 -27 -19.5 -45.5t-45.5 -18.5h-28q-3 0 -4 -3v-32q0 -2 1 -3h88q3 0 3 3v25h65v-29q0 -28 -19.5 -46t-45.5 -18z" />
    <glyph glyph-name="caron" 
d="M280 692h-65l-127 126l57 57l102 -102l104 102l56 -57z" />
    <glyph glyph-name="minus" 
d="M437 198v107h-378v-107h378z" />
    <glyph glyph-name="fi" horiz-adv-x="548" 
d="M190 554q3 4 8 6l86 41q8 13 9.5 22t1.5 17q0 14 -2.5 27.5t-13.5 45.5l-116 -49q-30 -13 -55 -40.5t-25 -60.5v-136h-40v-104h40v-326h107v326h163v-252l44 -49q6 -7 20 -18.5t34 -11.5q21 0 39.5 18.5t18.5 42.5q0 8 -3 14t-6 9l-39 39v390h-108v-78h-163v127zM337 595
q0 -29 20.5 -49t47.5 -20q28 0 49 20t21 49q0 27 -20 48t-49 21t-49 -20t-20 -49z" />
    <glyph glyph-name="fl" horiz-adv-x="556" 
d="M190 554q3 4 8 6l86 41q8 13 9.5 22t1.5 17q0 14 -2.5 27.5t-13.5 45.5l-116 -49q-30 -13 -55 -40.5t-25 -60.5v-136h-40v-104h40v-326h107v326h163v-252l44 -49q6 -7 20 -18.5t34 -11.5q21 0 39.5 18.5t18.5 42.5q0 8 -3 14t-6 9l-39 39v567h-108v-255h-163v127z" />
    <glyph glyph-name="Lslash" horiz-adv-x="456" 
d="M376 -3q18 0 28.5 17t10.5 37t-10.5 37t-28.5 17h-210v229l96 63v108l-96 -63v240h-107v-311l-59 -39v-108l59 39v-266h317z" />
    <glyph glyph-name="lslash" horiz-adv-x="262" 
d="M167 115v237l59 45v108l-59 -45v222h-108v-304l-59 -45v-108l59 45v-199l44 -49q6 -7 20 -18.5t34 -11.5q21 0 39.5 18.5t18.5 42.5q0 8 -3 14t-6 9z" />
    <glyph glyph-name="Delta" horiz-adv-x="682" 
d="M658 0l-265 682h-108l-261 -682h634zM339 510l148 -402h-296z" />
    </font>
</defs>
</svg>
