<?xml version="1.0" encoding="utf-8"?>
<!-- Generator: Adobe Illustrator 24.1.1, SVG Export Plug-In . SVG Version: 6.00 Build 0)  -->
<svg version="1.1" id="Calque_1" xmlns="http://www.w3.org/2000/svg" xmlns:xlink="http://www.w3.org/1999/xlink" x="0px" y="0px"
	 viewBox="0 0 300 300" style="enable-background:new 0 0 300 300;" xml:space="preserve">
<style type="text/css">
	.st0{fill:#ffffff;}
</style>
<g>
	<path class="st0" d="M175.68,144.87l-19.65,4.59v0.19c2.21,7.19,3.61,11.11,4.23,11.75H181v-0.37
		C181,160.42,179.23,155.03,175.68,144.87z M181.55,111.46c0-3.7-0.92-6.88-2.75-9.55c-1.75-4.16-7.99-6.24-18.73-6.24h-27.35
		c-0.25,1.07-2.45,20.6-6.61,58.57c0.73,0,7.1-1.53,19.09-4.59c0.37,0,0.98-4.59,1.84-13.77v-0.19c1.28,0,2.44,0.37,3.48,1.11
		c0.83,0.61,2.36,4.04,4.59,10.28c12.89-3.06,19.43-4.71,19.65-4.96c0-0.21-0.18-0.89-0.55-2.02c-1.62-3.52-3.46-6.09-5.51-7.71
		c0.34,0,1.32-0.49,2.94-1.47C178.25,126.36,181.55,119.88,181.55,111.46z M162.27,114.95c0,4.16-2.57,6.24-7.71,6.24h-5.87
		l1.1-10.1h7.34c3.43,0,5.14,1.23,5.14,3.68V114.95z"/>
	<path class="st0" d="M145.14,151.85c-0.58,6-1.01,9-1.28,9H125.5l-0.37-0.19c0.18-3.06,0.61-4.59,1.29-4.59
		c11.96-2.93,18.14-4.4,18.54-4.4C144.96,151.79,145.02,151.85,145.14,151.85z"/>
</g>
</svg>
